<svg width="160" height="106" viewBox="0 0 160 106" fill="none" xmlns="http://www.w3.org/2000/svg">
<path d="M14.856 49.624C13.016 49.624 11.248 49.336 9.552 48.76C7.856 48.184 6.376 47.36 5.112 46.288C3.848 45.2 2.944 43.912 2.4 42.424L7.08 40.672C7.352 41.44 7.872 42.128 8.64 42.736C9.424 43.328 10.352 43.792 11.424 44.128C12.512 44.464 13.656 44.632 14.856 44.632C16.136 44.632 17.336 44.424 18.456 44.008C19.592 43.592 20.504 43.016 21.192 42.28C21.896 41.544 22.248 40.68 22.248 39.688C22.248 38.664 21.88 37.824 21.144 37.168C20.424 36.512 19.496 35.992 18.36 35.608C17.24 35.224 16.072 34.936 14.856 34.744C12.504 34.36 10.392 33.8 8.52 33.064C6.664 32.328 5.192 31.296 4.104 29.968C3.032 28.64 2.496 26.912 2.496 24.784C2.496 22.784 3.064 21.04 4.2 19.552C5.352 18.064 6.864 16.912 8.736 16.096C10.624 15.264 12.664 14.848 14.856 14.848C16.664 14.848 18.408 15.136 20.088 15.712C21.784 16.272 23.272 17.096 24.552 18.184C25.848 19.256 26.776 20.56 27.336 22.096L22.608 23.8C22.336 23.016 21.816 22.336 21.048 21.76C20.28 21.168 19.352 20.704 18.264 20.368C17.192 20.032 16.056 19.864 14.856 19.864C13.576 19.848 12.376 20.056 11.256 20.488C10.152 20.904 9.248 21.48 8.544 22.216C7.84 22.952 7.488 23.808 7.488 24.784C7.488 25.984 7.816 26.896 8.472 27.52C9.128 28.144 10.008 28.608 11.112 28.912C12.232 29.2 13.48 29.464 14.856 29.704C17.064 30.056 19.104 30.64 20.976 31.456C22.864 32.272 24.376 33.36 25.512 34.72C26.664 36.064 27.24 37.72 27.24 39.688C27.24 41.672 26.664 43.416 25.512 44.92C24.376 46.408 22.864 47.568 20.976 48.4C19.104 49.216 17.064 49.624 14.856 49.624ZM44.5989 29.992H39.5589L39.5349 49H34.5429L34.5669 29.992H30.7509V25H34.5669L34.5429 17.464H39.5349L39.5589 25H44.5989V29.992ZM48.6456 49V25H53.6376V27.544C54.4696 26.552 55.4936 25.768 56.7096 25.192C57.9256 24.616 59.2376 24.328 60.6456 24.328C61.5416 24.328 62.4296 24.448 63.3096 24.688L61.3176 29.728C60.6936 29.488 60.0696 29.368 59.4456 29.368C58.3896 29.368 57.4216 29.632 56.5416 30.16C55.6616 30.672 54.9576 31.368 54.4296 32.248C53.9016 33.128 53.6376 34.104 53.6376 35.176V49H48.6456ZM75.2681 49.624C73.0601 49.624 71.0441 49.056 69.2201 47.92C67.4121 46.784 65.9641 45.264 64.8761 43.36C63.8041 41.44 63.2681 39.32 63.2681 37C63.2681 35.24 63.5801 33.6 64.2041 32.08C64.8281 30.544 65.6841 29.2 66.7721 28.048C67.8761 26.88 69.1561 25.968 70.6121 25.312C72.0681 24.656 73.6201 24.328 75.2681 24.328C77.1081 24.328 78.7961 24.712 80.3321 25.48C81.8681 26.232 83.1801 27.28 84.2681 28.624C85.3561 29.952 86.1561 31.488 86.6681 33.232C87.1801 34.96 87.3321 36.8 87.1241 38.752H68.6201C68.8281 39.856 69.2281 40.856 69.8201 41.752C70.4281 42.632 71.1961 43.328 72.1241 43.84C73.0681 44.352 74.1161 44.616 75.2681 44.632C76.4841 44.632 77.5881 44.328 78.5801 43.72C79.5881 43.112 80.4121 42.272 81.0521 41.2L86.1161 42.376C85.1561 44.504 83.7081 46.248 81.7721 47.608C79.8361 48.952 77.6681 49.624 75.2681 49.624ZM68.4521 34.936H82.0841C81.9241 33.784 81.5161 32.744 80.8601 31.816C80.2201 30.872 79.4121 30.128 78.4361 29.584C77.4761 29.024 76.4201 28.744 75.2681 28.744C74.1321 28.744 73.0761 29.016 72.1001 29.56C71.1401 30.104 70.3401 30.848 69.7001 31.792C69.0761 32.72 68.6601 33.768 68.4521 34.936ZM109.474 25H114.466V49H109.45L109.258 45.52C108.554 46.752 107.602 47.744 106.402 48.496C105.202 49.248 103.786 49.624 102.154 49.624C100.394 49.624 98.7379 49.296 97.1859 48.64C95.6339 47.968 94.2659 47.04 93.0819 45.856C91.9139 44.672 91.0019 43.312 90.3459 41.776C89.6899 40.224 89.3619 38.56 89.3619 36.784C89.3619 35.072 89.6819 33.464 90.3219 31.96C90.9619 30.44 91.8499 29.112 92.9859 27.976C94.1219 26.84 95.4339 25.952 96.9219 25.312C98.4259 24.656 100.034 24.328 101.746 24.328C103.49 24.328 105.026 24.728 106.354 25.528C107.698 26.312 108.81 27.32 109.69 28.552L109.474 25ZM102.034 44.8C103.442 44.8 104.674 44.456 105.73 43.768C106.786 43.064 107.602 42.12 108.178 40.936C108.77 39.752 109.066 38.44 109.066 37C109.066 35.544 108.77 34.224 108.178 33.04C107.586 31.856 106.762 30.92 105.706 30.232C104.666 29.528 103.442 29.176 102.034 29.176C100.642 29.176 99.3699 29.528 98.2179 30.232C97.0659 30.936 96.1539 31.88 95.4819 33.064C94.8099 34.248 94.4739 35.56 94.4739 37C94.4739 38.456 94.8179 39.776 95.5059 40.96C96.2099 42.128 97.1299 43.064 98.2659 43.768C99.4179 44.456 100.674 44.8 102.034 44.8ZM119.005 49V25H123.997V27.544C124.829 26.552 125.845 25.768 127.045 25.192C128.261 24.616 129.573 24.328 130.981 24.328C132.693 24.328 134.269 24.744 135.709 25.576C137.149 26.392 138.293 27.48 139.141 28.84C139.989 27.48 141.117 26.392 142.525 25.576C143.949 24.744 145.517 24.328 147.229 24.328C149.005 24.328 150.621 24.76 152.077 25.624C153.533 26.488 154.693 27.648 155.557 29.104C156.421 30.56 156.853 32.176 156.853 33.952V49H151.861V35.224C151.861 34.168 151.605 33.2 151.093 32.32C150.581 31.44 149.893 30.728 149.029 30.184C148.165 29.64 147.205 29.368 146.149 29.368C145.093 29.368 144.133 29.624 143.269 30.136C142.405 30.648 141.717 31.344 141.205 32.224C140.693 33.104 140.437 34.104 140.437 35.224V49H135.445V35.224C135.445 34.104 135.189 33.104 134.677 32.224C134.165 31.344 133.469 30.648 132.589 30.136C131.725 29.624 130.765 29.368 129.709 29.368C128.669 29.368 127.709 29.64 126.829 30.184C125.965 30.728 125.277 31.44 124.765 32.32C124.253 33.2 123.997 34.168 123.997 35.224V49H119.005Z" fill="#FE5E41"/>
<path d="M2.4 88V60H6.56V83.84H18.62V88H2.4ZM24.0281 88.52C22.1881 88.52 20.5081 88.0467 18.9881 87.1C17.4815 86.1533 16.2748 84.8867 15.3681 83.3C14.4748 81.7 14.0281 79.9333 14.0281 78C14.0281 76.5333 14.2881 75.1667 14.8081 73.9C15.3281 72.62 16.0415 71.5 16.9481 70.54C17.8681 69.5667 18.9348 68.8067 20.1481 68.26C21.3615 67.7133 22.6548 67.44 24.0281 67.44C25.8681 67.44 27.5415 67.9133 29.0481 68.86C30.5681 69.8067 31.7748 71.08 32.6681 72.68C33.5748 74.28 34.0281 76.0533 34.0281 78C34.0281 79.4533 33.7681 80.8133 33.2481 82.08C32.7281 83.3467 32.0081 84.4667 31.0881 85.44C30.1815 86.4 29.1215 87.1533 27.9081 87.7C26.7081 88.2467 25.4148 88.52 24.0281 88.52ZM24.0281 84.36C25.1348 84.36 26.1281 84.0667 27.0081 83.48C27.8881 82.8933 28.5815 82.12 29.0881 81.16C29.6081 80.1867 29.8681 79.1333 29.8681 78C29.8681 76.84 29.6015 75.7733 29.0681 74.8C28.5481 73.8267 27.8481 73.0533 26.9681 72.48C26.0881 71.8933 25.1081 71.6 24.0281 71.6C22.9348 71.6 21.9415 71.8933 21.0481 72.48C20.1681 73.0667 19.4681 73.8467 18.9481 74.82C18.4415 75.7933 18.1881 76.8533 18.1881 78C18.1881 79.1867 18.4548 80.26 18.9881 81.22C19.5215 82.18 20.2281 82.9467 21.1081 83.52C22.0015 84.08 22.9748 84.36 24.0281 84.36ZM30.0688 80.5V68H34.2288V79.48C34.2288 80.3733 34.4488 81.1867 34.8888 81.92C35.3288 82.6533 35.9154 83.24 36.6488 83.68C37.3821 84.1067 38.1888 84.32 39.0688 84.32C39.9621 84.32 40.7688 84.1067 41.4888 83.68C42.2221 83.24 42.8021 82.6533 43.2288 81.92C43.6688 81.1867 43.8888 80.3733 43.8888 79.48V68H48.0488L48.0688 88H43.9088L43.8888 85.84C43.2088 86.6667 42.3621 87.32 41.3488 87.8C40.3354 88.28 39.2488 88.52 38.0888 88.52C36.6088 88.52 35.2621 88.16 34.0488 87.44C32.8354 86.72 31.8688 85.7533 31.1488 84.54C30.4288 83.3267 30.0688 81.98 30.0688 80.5ZM74.0797 75.46V88H69.9197V76.48C69.9197 75.5867 69.6997 74.7733 69.2597 74.04C68.833 73.3067 68.253 72.7267 67.5197 72.3C66.7997 71.86 65.9864 71.64 65.0797 71.64C64.1997 71.64 63.393 71.86 62.6597 72.3C61.9264 72.7267 61.3397 73.3067 60.8997 74.04C60.4597 74.7733 60.2397 75.5867 60.2397 76.48V88H56.0797V68H60.2397V70.12C60.933 69.2933 61.7864 68.64 62.7997 68.16C63.813 67.68 64.9064 67.44 66.0797 67.44C67.5597 67.44 68.9064 67.8 70.1197 68.52C71.333 69.24 72.293 70.2067 72.9997 71.42C73.7197 72.6333 74.0797 73.98 74.0797 75.46ZM96.9013 68H101.061V88.52C101.061 89.8933 100.768 91.16 100.181 92.32C99.6079 93.48 98.8279 94.48 97.8413 95.32C96.8546 96.1733 95.7213 96.8333 94.4413 97.3C93.1746 97.7667 91.8479 98 90.4613 98C89.0613 98 87.7146 97.7 86.4213 97.1C85.1279 96.5133 83.9879 95.7133 83.0013 94.7C82.0279 93.6867 81.3013 92.54 80.8213 91.26L84.6413 89.54C84.9079 90.3667 85.3346 91.1 85.9213 91.74C86.5213 92.38 87.2146 92.8867 88.0013 93.26C88.8013 93.6333 89.6213 93.82 90.4613 93.82C91.2879 93.82 92.0813 93.6867 92.8413 93.42C93.6146 93.1667 94.3013 92.8067 94.9013 92.34C95.5146 91.8733 96.0013 91.3133 96.3613 90.66C96.7213 90.0067 96.9013 89.2933 96.9013 88.52V85.14C96.2479 86.1533 95.4079 86.9733 94.3813 87.6C93.3546 88.2133 92.1613 88.52 90.8013 88.52C89.3879 88.52 88.0546 88.2467 86.8013 87.7C85.5479 87.1533 84.4479 86.4 83.5013 85.44C82.5546 84.4667 81.8146 83.3467 81.2813 82.08C80.7479 80.8133 80.4813 79.4533 80.4813 78C80.4813 76.5467 80.7479 75.1867 81.2813 73.92C81.8146 72.64 82.5546 71.52 83.5013 70.56C84.4479 69.5867 85.5479 68.8267 86.8013 68.28C88.0546 67.7333 89.3879 67.46 90.8013 67.46C92.1613 67.46 93.3546 67.7733 94.3813 68.4C95.4079 69.0133 96.2479 69.8333 96.9013 70.86V68ZM90.8413 84.5C92.0013 84.5 93.0146 84.2067 93.8813 83.62C94.7479 83.02 95.4213 82.2267 95.9013 81.24C96.3813 80.2533 96.6213 79.1733 96.6213 78C96.6213 76.8 96.3746 75.7133 95.8813 74.74C95.4013 73.7533 94.7279 72.9667 93.8613 72.38C92.9946 71.78 91.9879 71.48 90.8413 71.48C89.7213 71.48 88.6946 71.7733 87.7613 72.36C86.8413 72.9467 86.1079 73.7333 85.5613 74.72C85.0146 75.7067 84.7413 76.8 84.7413 78C84.7413 79.2 85.0146 80.2933 85.5613 81.28C86.1213 82.2667 86.8613 83.0533 87.7813 83.64C88.7146 84.2133 89.7346 84.5 90.8413 84.5ZM118.309 88.52C116.469 88.52 114.789 88.0467 113.269 87.1C111.763 86.1533 110.556 84.8867 109.649 83.3C108.756 81.7 108.309 79.9333 108.309 78C108.309 76.5333 108.569 75.1667 109.089 73.9C109.609 72.62 110.323 71.5 111.229 70.54C112.149 69.5667 113.216 68.8067 114.429 68.26C115.643 67.7133 116.936 67.44 118.309 67.44C119.843 67.44 121.249 67.76 122.529 68.4C123.809 69.0267 124.903 69.9 125.809 71.02C126.716 72.1267 127.383 73.4067 127.809 74.86C128.236 76.3 128.363 77.8333 128.189 79.46H112.769C112.943 80.38 113.276 81.2133 113.769 81.96C114.276 82.6933 114.916 83.2733 115.689 83.7C116.476 84.1267 117.349 84.3467 118.309 84.36C119.323 84.36 120.243 84.1067 121.069 83.6C121.909 83.0933 122.596 82.3933 123.129 81.5L127.349 82.48C126.549 84.2533 125.343 85.7067 123.729 86.84C122.116 87.96 120.309 88.52 118.309 88.52ZM112.629 76.28H123.989C123.856 75.32 123.516 74.4533 122.969 73.68C122.436 72.8933 121.763 72.2733 120.949 71.82C120.149 71.3533 119.269 71.12 118.309 71.12C117.363 71.12 116.483 71.3467 115.669 71.8C114.869 72.2533 114.203 72.8733 113.669 73.66C113.149 74.4333 112.803 75.3067 112.629 76.28Z" fill="#F3C178"/>
</svg>
